<?xml version="1.0" standalone="no"?>
<!DOCTYPE svg PUBLIC "-//W3C//DTD SVG 20010904//EN"
 "http://www.w3.org/TR/2001/REC-SVG-20010904/DTD/svg10.dtd">
<svg version="1.0" xmlns="http://www.w3.org/2000/svg"
 width="512.000000pt" height="512.000000pt" viewBox="0 0 512.000000 512.000000"
 preserveAspectRatio="xMidYMid meet">

<g transform="translate(0.000000,512.000000) scale(0.100000,-0.100000)"
fill="#000000" stroke="none">
<path d="M0 2560 l0 -2560 2560 0 2560 0 0 2560 0 2560 -2560 0 -2560 0 0
-2560z m2618 1166 c15 -8 119 -71 231 -140 112 -69 205 -126 207 -126 9 0 139
-85 142 -92 2 -4 7 -8 12 -8 8 0 88 -48 444 -266 71 -43 135 -89 143 -101 8
-12 15 -43 16 -68 2 -42 -2 -50 -35 -81 -67 -61 -85 -55 -347 103 -124 75
-227 141 -229 145 -2 4 -8 8 -13 8 -5 0 -55 29 -112 64 -261 162 -500 308
-512 312 -12 5 -184 -95 -445 -258 -75 -46 -142 -87 -150 -91 -8 -4 -35 -20
-60 -36 -25 -16 -85 -53 -135 -82 -49 -29 -104 -63 -121 -76 -17 -13 -34 -23
-37 -23 -4 0 -42 -22 -85 -50 -59 -37 -89 -50 -116 -50 -49 0 -92 26 -111 66
-36 76 -10 119 121 200 54 34 209 129 344 211 267 163 517 316 650 399 92 57
144 68 198 40z m472 -1107 c54 -29 100 -100 107 -164 l6 -45 -65 0 -65 0 -12
40 c-14 47 -50 70 -111 70 -44 0 -90 -33 -90 -65 0 -26 47 -62 98 -75 154 -40
213 -74 248 -142 46 -89 -6 -204 -120 -266 -45 -24 -198 -23 -245 2 -77 41
-160 159 -149 212 3 16 14 20 65 22 l62 3 19 -45 c24 -53 53 -74 113 -82 58
-8 101 13 119 57 13 31 12 33 -22 64 -23 22 -50 35 -79 40 -133 21 -225 78
-248 155 -22 73 9 152 81 209 62 48 210 53 288 10z m-632 -24 c129 -67 188
-173 180 -322 -6 -110 -40 -179 -122 -245 -75 -60 -140 -83 -232 -82 -86 1
-160 32 -228 94 -55 51 -107 151 -114 219 -10 106 40 225 124 298 75 63 139
85 240 79 70 -3 91 -9 152 -41z m-938 -85 l5 -115 116 118 116 117 71 0 c46 0
72 -4 72 -11 0 -15 -37 -59 -142 -166 -61 -62 -88 -97 -84 -108 3 -8 61 -83
128 -166 150 -184 151 -185 143 -199 -7 -11 -134 -14 -151 -2 -5 4 -41 45 -80
92 -170 209 -149 188 -173 166 -19 -17 -21 -30 -21 -138 l0 -119 -67 3 -68 3
-3 310 c-1 170 0 316 3 323 3 9 23 12 67 10 l63 -3 5 -115z m2258 47 l-3 -61
-91 2 c-79 3 -92 1 -98 -14 -4 -9 -6 -124 -6 -256 1 -131 -1 -242 -5 -248 -9
-14 -108 -13 -123 2 -9 9 -12 82 -12 265 l0 253 -95 0 -95 0 0 58 c0 32 2 61
4 63 2 2 122 3 266 1 l261 -3 -3 -62z m-1102 -543 c15 -27 15 -34 3 -60 -12
-24 -21 -30 -55 -32 -37 -3 -44 1 -78 38 l-37 41 48 43 48 44 27 -22 c14 -11
34 -35 44 -52z m1023 -328 c26 -24 27 -50 1 -76 -20 -20 -33 -20 -1145 -20
-1112 0 -1125 0 -1145 20 -31 31 -21 78 20 93 8 3 517 5 1131 4 1083 -2 1118
-3 1138 -21z"/>
<path d="M2196 2565 c-135 -52 -215 -192 -186 -328 49 -239 342 -310 507 -123
47 53 63 101 63 188 0 108 -60 197 -170 253 -47 24 -163 29 -214 10z m157 -66
c51 -14 120 -83 142 -142 16 -41 16 -55 6 -100 -14 -63 -55 -124 -99 -150 -18
-10 -59 -21 -92 -24 -78 -7 -154 27 -195 89 -59 88 -42 215 38 283 61 52 123
66 200 44z"/>
<path d="M2245 2439 c-88 -27 -131 -133 -87 -218 23 -46 61 -72 114 -78 93
-11 170 56 170 146 0 65 -31 117 -86 142 -45 20 -66 22 -111 8z"/>
<path d="M2586 2011 c-16 -25 27 -62 48 -41 7 7 7 16 0 28 -13 20 -39 27 -48
13z"/>
</g>
</svg>
